<svg width="211" height="211" viewBox="0 0 211 211" fill="none" xmlns="http://www.w3.org/2000/svg">
<circle cx="105.5" cy="105.5" r="105.5" fill="#818CF8"/>
<g filter="url(#filter0_d_0_1)">
<rect x="32" y="86" width="146" height="40" rx="12" fill="black"/>
</g>
<path d="M42.356 123.732C41.78 123.732 41.336 123.576 41.024 123.264C40.712 122.952 40.556 122.496 40.556 121.896V101.016C40.556 100.416 40.712 99.96 41.024 99.648C41.336 99.336 41.768 99.18 42.32 99.18C42.896 99.18 43.34 99.336 43.652 99.648C43.964 99.96 44.12 100.416 44.12 101.016V104.148L43.724 103.392C44.108 102.096 44.864 101.064 45.992 100.296C47.12 99.504 48.452 99.108 49.988 99.108C51.548 99.108 52.904 99.48 54.056 100.224C55.232 100.968 56.132 102.012 56.756 103.356C57.404 104.7 57.728 106.32 57.728 108.216C57.728 110.064 57.404 111.684 56.756 113.076C56.132 114.444 55.244 115.5 54.092 116.244C52.94 116.964 51.572 117.324 49.988 117.324C48.476 117.324 47.156 116.94 46.028 116.172C44.9 115.404 44.144 114.384 43.76 113.112H44.192V121.896C44.192 122.496 44.024 122.952 43.688 123.264C43.376 123.576 42.932 123.732 42.356 123.732ZM49.088 114.516C50.096 114.516 50.972 114.276 51.716 113.796C52.46 113.316 53.036 112.608 53.444 111.672C53.852 110.736 54.056 109.584 54.056 108.216C54.056 106.152 53.6 104.592 52.688 103.536C51.8 102.48 50.6 101.952 49.088 101.952C48.104 101.952 47.228 102.192 46.46 102.672C45.716 103.128 45.14 103.824 44.732 104.76C44.324 105.696 44.12 106.848 44.12 108.216C44.12 110.256 44.576 111.816 45.488 112.896C46.4 113.976 47.6 114.516 49.088 114.516ZM110.449 123.732C109.873 123.732 109.429 123.576 109.117 123.264C108.805 122.952 108.649 122.496 108.649 121.896V101.016C108.649 100.416 108.805 99.96 109.117 99.648C109.429 99.336 109.861 99.18 110.413 99.18C110.989 99.18 111.433 99.336 111.745 99.648C112.057 99.96 112.213 100.416 112.213 101.016V104.148L111.817 103.392C112.201 102.096 112.957 101.064 114.085 100.296C115.213 99.504 116.545 99.108 118.081 99.108C119.641 99.108 120.997 99.48 122.149 100.224C123.325 100.968 124.225 102.012 124.849 103.356C125.497 104.7 125.821 106.32 125.821 108.216C125.821 110.064 125.497 111.684 124.849 113.076C124.225 114.444 123.337 115.5 122.185 116.244C121.033 116.964 119.665 117.324 118.081 117.324C116.569 117.324 115.249 116.94 114.121 116.172C112.993 115.404 112.237 114.384 111.853 113.112H112.285V121.896C112.285 122.496 112.117 122.952 111.781 123.264C111.469 123.576 111.025 123.732 110.449 123.732ZM117.181 114.516C118.189 114.516 119.065 114.276 119.809 113.796C120.553 113.316 121.129 112.608 121.537 111.672C121.945 110.736 122.149 109.584 122.149 108.216C122.149 106.152 121.693 104.592 120.781 103.536C119.893 102.48 118.693 101.952 117.181 101.952C116.197 101.952 115.321 102.192 114.553 102.672C113.809 103.128 113.233 103.824 112.825 104.76C112.417 105.696 112.213 106.848 112.213 108.216C112.213 110.256 112.669 111.816 113.581 112.896C114.493 113.976 115.693 114.516 117.181 114.516Z" fill="#818CF8"/>
<path d="M69.1695 117.324C67.7535 117.324 66.5655 117.06 65.6055 116.532C64.6695 116.004 63.9615 115.224 63.4815 114.192C63.0255 113.136 62.7975 111.816 62.7975 110.232V101.016C62.7975 100.392 62.9535 99.936 63.2655 99.648C63.5775 99.336 64.0215 99.18 64.5975 99.18C65.1735 99.18 65.6175 99.336 65.9295 99.648C66.2655 99.936 66.4335 100.392 66.4335 101.016V110.268C66.4335 111.684 66.7215 112.728 67.2975 113.4C67.8735 114.072 68.7855 114.408 70.0335 114.408C71.4015 114.408 72.5055 113.952 73.3455 113.04C74.2095 112.104 74.6415 110.88 74.6415 109.368V101.016C74.6415 100.392 74.7975 99.936 75.1095 99.648C75.4215 99.336 75.8775 99.18 76.4775 99.18C77.0535 99.18 77.4975 99.336 77.8095 99.648C78.1215 99.936 78.2775 100.392 78.2775 101.016V115.416C78.2775 116.64 77.6895 117.252 76.5135 117.252C75.9615 117.252 75.5295 117.096 75.2175 116.784C74.9055 116.448 74.7495 115.992 74.7495 115.416V112.356L75.2175 113.148C74.7375 114.492 73.9695 115.524 72.9135 116.244C71.8575 116.964 70.6095 117.324 69.1695 117.324ZM90.1336 117.324C88.2616 117.324 86.8456 116.784 85.8856 115.704C84.9496 114.6 84.4816 113.016 84.4816 110.952V93.204C84.4816 92.604 84.6376 92.148 84.9496 91.836C85.2616 91.524 85.7056 91.368 86.2816 91.368C86.8576 91.368 87.3016 91.524 87.6136 91.836C87.9496 92.148 88.1176 92.604 88.1176 93.204V110.736C88.1176 111.936 88.3576 112.836 88.8376 113.436C89.3416 114.012 90.0616 114.3 90.9976 114.3C91.2136 114.3 91.4056 114.3 91.5736 114.3C91.7416 114.276 91.9096 114.252 92.0776 114.228C92.3656 114.204 92.5696 114.288 92.6896 114.48C92.8096 114.648 92.8696 115.008 92.8696 115.56C92.8696 116.064 92.7616 116.46 92.5456 116.748C92.3296 117.012 91.9816 117.18 91.5016 117.252C91.2856 117.276 91.0576 117.288 90.8176 117.288C90.5776 117.312 90.3496 117.324 90.1336 117.324ZM102.218 117.324C100.346 117.324 98.9295 116.784 97.9695 115.704C97.0335 114.6 96.5655 113.016 96.5655 110.952V93.204C96.5655 92.604 96.7215 92.148 97.0335 91.836C97.3455 91.524 97.7895 91.368 98.3655 91.368C98.9415 91.368 99.3855 91.524 99.6975 91.836C100.034 92.148 100.202 92.604 100.202 93.204V110.736C100.202 111.936 100.442 112.836 100.922 113.436C101.426 114.012 102.146 114.3 103.082 114.3C103.298 114.3 103.49 114.3 103.658 114.3C103.826 114.276 103.994 114.252 104.162 114.228C104.45 114.204 104.654 114.288 104.774 114.48C104.894 114.648 104.954 115.008 104.954 115.56C104.954 116.064 104.846 116.46 104.63 116.748C104.414 117.012 104.066 117.18 103.586 117.252C103.37 117.276 103.142 117.288 102.902 117.288C102.662 117.312 102.434 117.324 102.218 117.324ZM138.631 117.324C136.855 117.324 135.319 116.952 134.023 116.208C132.751 115.464 131.755 114.408 131.035 113.04C130.315 111.672 129.955 110.064 129.955 108.216C129.955 106.8 130.159 105.54 130.567 104.436C130.975 103.332 131.551 102.384 132.295 101.592C133.063 100.776 133.975 100.164 135.031 99.756C136.111 99.324 137.311 99.108 138.631 99.108C140.383 99.108 141.895 99.48 143.167 100.224C144.463 100.968 145.471 102.024 146.191 103.392C146.911 104.736 147.271 106.344 147.271 108.216C147.271 109.608 147.067 110.868 146.659 111.996C146.251 113.124 145.663 114.084 144.895 114.876C144.151 115.668 143.239 116.28 142.159 116.712C141.103 117.12 139.927 117.324 138.631 117.324ZM138.631 114.516C139.615 114.516 140.479 114.276 141.223 113.796C141.967 113.316 142.543 112.608 142.951 111.672C143.383 110.736 143.599 109.584 143.599 108.216C143.599 106.152 143.143 104.592 142.231 103.536C141.319 102.48 140.119 101.952 138.631 101.952C137.623 101.952 136.747 102.192 136.003 102.672C135.259 103.128 134.671 103.824 134.239 104.76C133.831 105.696 133.627 106.848 133.627 108.216C133.627 110.256 134.083 111.816 134.995 112.896C135.907 113.976 137.119 114.516 138.631 114.516ZM158.086 117.324C156.214 117.324 154.798 116.784 153.838 115.704C152.902 114.6 152.434 113.016 152.434 110.952V93.204C152.434 92.604 152.59 92.148 152.902 91.836C153.214 91.524 153.658 91.368 154.234 91.368C154.81 91.368 155.254 91.524 155.566 91.836C155.902 92.148 156.07 92.604 156.07 93.204V110.736C156.07 111.936 156.31 112.836 156.79 113.436C157.294 114.012 158.014 114.3 158.95 114.3C159.166 114.3 159.358 114.3 159.526 114.3C159.694 114.276 159.862 114.252 160.03 114.228C160.318 114.204 160.522 114.288 160.642 114.48C160.762 114.648 160.822 115.008 160.822 115.56C160.822 116.064 160.714 116.46 160.498 116.748C160.282 117.012 159.934 117.18 159.454 117.252C159.238 117.276 159.01 117.288 158.77 117.288C158.53 117.312 158.302 117.324 158.086 117.324ZM170.17 117.324C168.298 117.324 166.882 116.784 165.922 115.704C164.986 114.6 164.518 113.016 164.518 110.952V93.204C164.518 92.604 164.674 92.148 164.986 91.836C165.298 91.524 165.742 91.368 166.318 91.368C166.894 91.368 167.338 91.524 167.65 91.836C167.986 92.148 168.154 92.604 168.154 93.204V110.736C168.154 111.936 168.394 112.836 168.874 113.436C169.378 114.012 170.098 114.3 171.034 114.3C171.25 114.3 171.442 114.3 171.61 114.3C171.778 114.276 171.946 114.252 172.114 114.228C172.402 114.204 172.606 114.288 172.726 114.48C172.846 114.648 172.906 115.008 172.906 115.56C172.906 116.064 172.798 116.46 172.582 116.748C172.366 117.012 172.018 117.18 171.538 117.252C171.322 117.276 171.094 117.288 170.854 117.288C170.614 117.312 170.386 117.324 170.17 117.324Z" fill="white"/>
<defs>
<filter id="filter0_d_0_1" x="28" y="86" width="154" height="48" filterUnits="userSpaceOnUse" color-interpolation-filters="sRGB">
<feFlood flood-opacity="0" result="BackgroundImageFix"/>
<feColorMatrix in="SourceAlpha" type="matrix" values="0 0 0 0 0 0 0 0 0 0 0 0 0 0 0 0 0 0 127 0" result="hardAlpha"/>
<feOffset dy="4"/>
<feGaussianBlur stdDeviation="2"/>
<feComposite in2="hardAlpha" operator="out"/>
<feColorMatrix type="matrix" values="0 0 0 0 0 0 0 0 0 0 0 0 0 0 0 0 0 0 0.25 0"/>
<feBlend mode="normal" in2="BackgroundImageFix" result="effect1_dropShadow_0_1"/>
<feBlend mode="normal" in="SourceGraphic" in2="effect1_dropShadow_0_1" result="shape"/>
</filter>
</defs>
</svg>
